<?xml version="1.0" encoding="UTF-8"?>
<svg width="102px" height="46px" viewBox="0 0 102 46" version="1.1" xmlns="http://www.w3.org/2000/svg" xmlns:xlink="http://www.w3.org/1999/xlink">
    <!-- Generator: sketchtool 59 (101010) - https://sketch.com -->
    <title>9689024C-E278-4F0C-B70C-9755F7EECD6E</title>
    <desc>Created with sketchtool.</desc>
    <defs>
        <polygon id="path-1" points="0 0.191812698 96 0.191812698 96 45.9342857 0 45.9342857"></polygon>
    </defs>
    <g id="Page-1" stroke="none" stroke-width="1" fill="none" fill-rule="evenodd">
        <g id="homepage" transform="translate(-340.000000, -51.000000)">
            <g id="Header">
                <g id="logo" transform="translate(340.000000, 51.000000)">
                    <polygon id="Fill-1" fill="#FECD12" points="39 46 102 46 102 0 39 0"></polygon>
                    <g id="Group-24">
                        <mask id="mask-2" fill="white">
                            <use xlink:href="#path-1"></use>
                        </mask>
                        <g id="Clip-3"></g>
                        <polygon id="Stroke-2" stroke="#FECD12" stroke-width="0.179" mask="url(#mask-2)" points="40.8128198 45.9342857 102.84106 45.9342857 102.84106 0.216126984 40.8128198 0.216126984"></polygon>
                        <path d="M49.0161398,23.460073 C49.0635807,23.6564857 49.1397736,23.832454 49.2439998,23.9894381 C49.348226,24.1456921 49.4840794,24.2712794 49.6522789,24.3654698 C49.8197596,24.4603905 50.0238992,24.5078508 50.2646977,24.5078508 C50.5047773,24.5078508 50.7089169,24.4603905 50.8771164,24.3654698 C51.0445971,24.2712794 51.1811693,24.1456921 51.2853955,23.9894381 C51.3896217,23.832454 51.4658147,23.6564857 51.5132555,23.460073 C51.5606964,23.2643905 51.5844169,23.0628667 51.5844169,22.8555016 C51.5844169,22.6393746 51.5606964,22.4290889 51.5132555,22.2268349 C51.4658147,22.0238508 51.3896217,21.8427714 51.2853955,21.6835968 C51.1811693,21.5251524 51.0445971,21.3981048 50.8771164,21.3039143 C50.7089169,21.2089937 50.5047773,21.1622635 50.2646977,21.1622635 C50.0238992,21.1622635 49.8197596,21.2089937 49.6522789,21.3039143 C49.4840794,21.3981048 49.348226,21.5251524 49.2439998,21.6835968 C49.1397736,21.8427714 49.0635807,22.0238508 49.0161398,22.2268349 C48.9686989,22.4290889 48.9442596,22.6393746 48.9442596,22.8555016 C48.9442596,23.0628667 48.9686989,23.2643905 49.0161398,23.460073 M48.0400076,21.8296286 C48.1485466,21.5134698 48.3052453,21.2382 48.5093849,21.0030889 C48.7135244,20.7679778 48.9643861,20.5839778 49.261251,20.4503587 C49.558116,20.3160095 49.8930774,20.2502952 50.2646977,20.2502952 C50.6413495,20.2502952 50.9770298,20.3160095 51.2717383,20.4503587 C51.5664468,20.5839778 51.8165897,20.7679778 52.0207293,21.0030889 C52.2248688,21.2382 52.3815675,21.5134698 52.4893877,21.8296286 C52.5986455,22.144327 52.6532744,22.4867714 52.6532744,22.8555016 C52.6532744,23.2147397 52.5986455,23.5498825 52.4893877,23.8609302 C52.3815675,24.1727079 52.2248688,24.4435968 52.0207293,24.6728667 C51.8165897,24.904327 51.5664468,25.0846762 51.2717383,25.2153746 C50.9770298,25.3475333 50.6413495,25.4132476 50.2646977,25.4132476 C49.8930774,25.4132476 49.558116,25.3475333 49.261251,25.2153746 C48.9643861,25.0846762 48.7135244,24.904327 48.5093849,24.6728667 C48.3052453,24.4435968 48.1485466,24.1727079 48.0400076,23.8609302 C47.9307498,23.5498825 47.8761209,23.2147397 47.8761209,22.8555016 C47.8761209,22.4867714 47.9307498,22.144327 48.0400076,21.8296286" id="Fill-4" fill="#231F20" mask="url(#mask-2)"></path>
                        <polygon id="Fill-5" fill="#231F20" mask="url(#mask-2)" points="54.5854842 20.3669016 54.5854842 22.2609333 56.5521246 22.2609333 56.5521246 20.3669016 57.6209822 20.3669016 57.6209822 25.3027746 56.5521246 25.3027746 56.5521246 23.1736317 54.5854842 23.1736317 54.5854842 25.3027746 53.5173455 25.3027746 53.5173455 20.3669016"></polygon>
                        <polygon id="Fill-6" fill="#231F20" mask="url(#mask-2)" points="60.1996819 20.3669016 61.3361068 23.7606794 61.349764 23.7606794 62.4250908 20.3669016 63.9281043 20.3669016 63.9281043 25.3027746 62.9282517 25.3027746 62.9282517 21.8053143 62.9145945 21.8053143 61.7235407 25.3027746 60.9005132 25.3027746 59.7094594 21.8396317 59.696521 21.8396317 59.696521 25.3027746 58.6952307 25.3027746 58.6952307 20.3669016"></polygon>
                        <polygon id="Fill-7" fill="#231F20" mask="url(#mask-2)" points="51.7207735 27.2791683 51.7207735 28.1918667 49.1560904 28.1918667 49.1560904 29.2491365 51.5101647 29.2491365 51.5101647 30.0932 49.1560904 30.0932 49.1560904 31.3023429 51.7754024 31.3023429 51.7754024 32.2150413 48.0872328 32.2150413 48.0872328 27.2791683"></polygon>
                        <polygon id="Fill-8" fill="#231F20" mask="url(#mask-2)" points="53.693955 27.2791683 55.7216935 30.5904381 55.7360695 30.5904381 55.7360695 27.2791683 56.7359221 27.2791683 56.7359221 32.2150413 55.6677834 32.2150413 53.6472329 28.9103429 53.6328569 28.9103429 53.6328569 32.2150413 52.6322854 32.2150413 52.6322854 27.2791683"></polygon>
                        <polygon id="Fill-9" fill="#231F20" mask="url(#mask-2)" points="61.4449333 27.2791683 61.4449333 28.1918667 58.8795314 28.1918667 58.8795314 29.2491365 61.2336057 29.2491365 61.2336057 30.0932 58.8795314 30.0932 58.8795314 31.3023429 61.4988434 31.3023429 61.4988434 32.2150413 57.8106739 32.2150413 57.8106739 27.2791683"></polygon>
                        <path d="M64.5952957,29.5117016 C64.8404069,29.5117016 65.0244201,29.4569397 65.1466163,29.3459556 C65.2688125,29.2357016 65.3299106,29.0553524 65.3299106,28.8063683 C65.3299106,28.5668762 65.2688125,28.3930984 65.1466163,28.2850349 C65.0244201,28.1769714 64.8404069,28.1229397 64.5952957,28.1229397 L63.4250872,28.1229397 L63.4250872,29.5117016 L64.5952957,29.5117016 Z M64.9762604,27.2788762 C65.1940572,27.2788762 65.3902899,27.314654 65.5649587,27.3862095 C65.7396274,27.4577651 65.8891381,27.5556063 66.0142095,27.6797333 C66.1385621,27.8045905 66.2341627,27.9484317 66.2995736,28.1119873 C66.3657033,28.276273 66.3987682,28.4522413 66.3987682,28.6413524 C66.3987682,28.9312254 66.3383889,29.1824 66.2183491,29.394146 C66.0983092,29.6066222 65.9013577,29.7679873 65.628932,29.8782413 L65.628932,29.8921143 C65.7611914,29.9286222 65.8697304,29.9848444 65.9567054,30.0615111 C66.0422427,30.1374476 66.1126853,30.2272571 66.1673142,30.3309397 C66.2219431,30.4353524 66.2607583,30.548527 66.2866352,30.6733841 C66.3110744,30.7975111 66.3283257,30.9223683 66.3376701,31.0464952 C66.3419829,31.1246222 66.3470145,31.2166222 66.3506085,31.3224952 C66.3549213,31.4290984 66.3635469,31.5364317 66.3750477,31.648146 C66.3858298,31.7584 66.4045186,31.8635429 66.4296766,31.9621143 C66.4541159,32.0614159 66.4914936,32.1453841 66.5410908,32.2147492 L65.4729521,32.2147492 C65.4140104,32.0577651 65.3780703,31.8708444 65.3636943,31.6554476 C65.3507559,31.4385905 65.3299106,31.2304952 65.3025962,31.0326222 C65.2666561,30.774146 65.1890256,30.5857651 65.071861,30.466019 C64.9532587,30.346273 64.76062,30.2864 64.4932259,30.2864 L63.4250872,30.2864 L63.4250872,32.2147492 L62.3569484,32.2147492 L62.3569484,27.2788762 L64.9762604,27.2788762 Z" id="Fill-10" fill="#231F20" mask="url(#mask-2)"></path>
                        <path d="M70.2839612,32.1763429 C70.0532259,32.2756444 69.8196155,32.3252952 69.5831299,32.3252952 C69.2115096,32.3252952 68.8765482,32.259581 68.5796833,32.1281524 C68.2820995,31.9967238 68.0312378,31.8163746 67.8270983,31.5849143 C67.6236775,31.3556444 67.4669788,31.0847556 67.3584398,30.7729778 C67.2484632,30.4619302 67.1945531,30.1267873 67.1945531,29.7675492 C67.1945531,29.398819 67.2484632,29.0571048 67.3584398,28.740946 C67.4669788,28.4255175 67.6236775,28.1502476 67.8270983,27.9151365 C68.0312378,27.6800254 68.2820995,27.4960254 68.5796833,27.3624063 C68.8765482,27.2287873 69.2115096,27.1616127 69.5831299,27.1616127 C69.8325539,27.1616127 70.0740712,27.2003111 70.3076816,27.2755175 C70.541292,27.3521841 70.7519008,27.4638984 70.9409456,27.6106603 C71.1292715,27.7581524 71.2845326,27.9406921 71.4067288,28.156819 C71.528925,28.3736762 71.6043992,28.6226603 71.6317136,28.9037714 L70.610297,28.9037714 C70.5470424,28.6270413 70.4241274,28.4196762 70.2429895,28.2816762 C70.0611328,28.1436762 69.8418984,28.0743111 69.5831299,28.0743111 C69.3423314,28.0743111 69.1381919,28.1210413 68.9707112,28.2159619 C68.8025117,28.3101524 68.6666582,28.4372 68.5617132,28.5963746 C68.4582058,28.754819 68.3820129,28.9366286 68.334572,29.1388825 C68.2871311,29.3411365 68.2626919,29.5506921 68.2626919,29.7675492 C68.2626919,29.9749143 68.2871311,30.1771683 68.334572,30.3721206 C68.3820129,30.5685333 68.4582058,30.7445016 68.5617132,30.9014857 C68.6666582,31.0584698 68.8025117,31.1840571 68.9707112,31.2782476 C69.1381919,31.3717079 69.3423314,31.4198984 69.5831299,31.4198984 C69.9374989,31.4198984 70.2099246,31.3286286 70.4032822,31.146819 C70.5959209,30.9650095 70.7080539,30.7006921 70.7396812,30.355327 L69.6650732,30.355327 L69.6650732,29.5463111 L71.706469,29.5463111 L71.706469,32.2150413 L71.0257641,32.2150413 L70.9172251,31.6550095 C70.726024,31.9039937 70.5154152,32.0770413 70.2839612,32.1763429" id="Fill-11" fill="#231F20" mask="url(#mask-2)"></path>
                        <polygon id="Fill-12" fill="#231F20" mask="url(#mask-2)" points="72.1820279 27.2791683 73.3802697 27.2791683 74.5159758 29.2286921 75.6459314 27.2791683 76.8369852 27.2791683 75.0335127 30.3210095 75.0335127 32.2150413 73.9646552 32.2150413 73.9646552 30.2932635"></polygon>
                        <path d="M48.903863,37.9099873 C48.9628047,38.0253524 49.0404353,38.1188127 49.1381922,38.1903683 C49.2359492,38.2611937 49.3502386,38.3144952 49.4824981,38.3495429 C49.6133199,38.3838603 49.7498922,38.4013841 49.8907772,38.4013841 C49.985659,38.4013841 50.0877288,38.3933524 50.1969866,38.3772889 C50.3055256,38.3604952 50.4075954,38.3298286 50.5031959,38.2838286 C50.5980777,38.2378286 50.6778647,38.1743048 50.7411192,38.0932571 C50.8050925,38.0129397 50.8360009,37.9099873 50.8360009,37.7858603 C50.8360009,37.6522413 50.7943105,37.5441778 50.7109295,37.4609397 C50.626111,37.3777016 50.5161344,37.3090667 50.3809997,37.2543048 C50.2444275,37.1980825 50.0898852,37.1498921 49.9173729,37.108273 C49.7455794,37.0673841 49.5709106,37.020654 49.3940855,36.970273 C49.2122288,36.924273 49.0354037,36.8673206 48.8628913,36.8008762 C48.690379,36.7344317 48.5358367,36.6475429 48.4007021,36.5416698 C48.2641298,36.4357968 48.1541532,36.3036381 48.0700535,36.1444635 C47.9866725,35.9852889 47.9442633,35.7932571 47.9442633,35.5669079 C47.9442633,35.3135429 47.9974546,35.0937651 48.104556,34.9068444 C48.2109385,34.720654 48.3496672,34.5651302 48.5228983,34.440273 C48.6954106,34.316146 48.889487,34.2234159 49.1080026,34.1635429 C49.3257994,34.1036698 49.5435962,34.0737333 49.7606742,34.0737333 C50.0151298,34.0737333 50.2588035,34.1029397 50.4924139,34.1606222 C50.7260243,34.2175746 50.9337579,34.3110349 51.1148959,34.440273 C51.2967526,34.5695111 51.4405128,34.7337968 51.5476142,34.9345905 C51.6539968,35.134654 51.7071881,35.3777968 51.7071881,35.664019 L50.672833,35.664019 C50.6634886,35.516527 50.633299,35.3945905 50.5808265,35.2974794 C50.5290728,35.2003683 50.4600679,35.1251619 50.3738117,35.0689397 C50.2875555,35.0141778 50.188361,34.9747492 50.0776656,34.9513841 C49.9669702,34.9287492 49.8454927,34.9170667 49.7139521,34.9170667 C49.6276959,34.9170667 49.5414398,34.9265587 49.4551836,34.9448127 C49.3682087,34.9630667 49.2905781,34.9959238 49.2201356,35.0411937 C49.1496931,35.0879238 49.092189,35.1456063 49.0461857,35.2149714 C49.00162,35.2836063 48.9786183,35.3712254 48.9786183,35.4770984 C48.9786183,35.5742095 48.9965884,35.6523365 49.0332472,35.7122095 C49.0691873,35.7720825 49.1410674,35.8268444 49.24745,35.8786857 C49.3538326,35.9290667 49.5011869,35.9794476 49.6902317,36.0305587 C49.8778388,36.0809397 50.1236688,36.1451937 50.4277218,36.2233206 C50.5190096,36.2423048 50.6447998,36.2758921 50.8058113,36.3240825 C50.9668228,36.3730032 51.1271155,36.4496698 51.2852518,36.5555429 C51.4441069,36.6614159 51.5821167,36.8030667 51.6971249,36.9804952 C51.8128519,37.1579238 51.870356,37.3850032 51.870356,37.6610032 C51.870356,37.8873524 51.827228,38.0969079 51.7409718,38.2904 C51.6547156,38.4838921 51.526769,38.6518286 51.3571319,38.7912889 C51.186776,38.9322095 50.9761672,39.0417333 50.7238679,39.1198603 C50.4722875,39.1987175 50.1804541,39.2374159 49.8490867,39.2374159 C49.5816927,39.2374159 49.3222054,39.2038286 49.0699061,39.1373841 C48.8190445,39.0702095 48.5962161,38.9650667 48.4035773,38.8226857 C48.2109385,38.6803048 48.0571151,38.4977651 47.9442633,38.276527 C47.8306927,38.0552889 47.7767826,37.7931619 47.7810954,37.4886857 L48.8154505,37.4886857 C48.8154505,37.6544317 48.8449213,37.7953524 48.903863,37.9099873" id="Fill-13" fill="#231F20" mask="url(#mask-2)"></path>
                        <path d="M53.5683085,37.2846063 C53.6157494,37.481019 53.6919423,37.6569873 53.7961685,37.8139714 C53.9003947,37.9702254 54.0362482,38.0958127 54.2051665,38.1900032 C54.3719284,38.2841937 54.5760679,38.3323841 54.8168664,38.3323841 C55.056946,38.3323841 55.2610856,38.2841937 55.4292851,38.1900032 C55.5967658,38.0958127 55.7333381,37.9702254 55.8375642,37.8139714 C55.9417904,37.6569873 56.0179834,37.481019 56.0661431,37.2846063 C56.1128651,37.0889238 56.1365856,36.8874 56.1365856,36.6800349 C56.1365856,36.4631778 56.1128651,36.2536222 56.0661431,36.0513683 C56.0179834,35.8483841 55.9417904,35.6673048 55.8375642,35.5081302 C55.7333381,35.3496857 55.5967658,35.2226381 55.4292851,35.1277175 C55.2610856,35.033527 55.056946,34.9867968 54.8168664,34.9867968 C54.5760679,34.9867968 54.3719284,35.033527 54.2051665,35.1277175 C54.0362482,35.2226381 53.9003947,35.3496857 53.7961685,35.5081302 C53.6919423,35.6673048 53.6157494,35.8483841 53.5683085,36.0513683 C53.5208676,36.2536222 53.4964284,36.4631778 53.4964284,36.6800349 C53.4964284,36.8874 53.5208676,37.0889238 53.5683085,37.2846063 M52.5921763,35.6534317 C52.7007153,35.3380032 52.857414,35.0627333 53.0615536,34.8276222 C53.2656931,34.591781 53.5165548,34.4085111 53.8134197,34.2748921 C54.1102847,34.1405429 54.4452461,34.0740984 54.8168664,34.0740984 C55.1935183,34.0740984 55.5291985,34.1405429 55.8246258,34.2748921 C56.1193344,34.4085111 56.3687584,34.591781 56.572898,34.8276222 C56.7770376,35.0627333 56.9337362,35.3380032 57.0422752,35.6534317 C57.1508142,35.9688603 57.2054431,36.3113048 57.2054431,36.6800349 C57.2054431,37.039273 57.1508142,37.3744159 57.0422752,37.6854635 C56.9337362,37.9972413 56.7770376,38.2674 56.572898,38.4974 C56.3687584,38.7288603 56.1193344,38.9092095 55.8246258,39.0399079 C55.5291985,39.1720667 55.1935183,39.237781 54.8168664,39.237781 C54.4452461,39.237781 54.1102847,39.1720667 53.8134197,39.0399079 C53.5165548,38.9092095 53.2656931,38.7288603 53.0615536,38.4974 C52.857414,38.2674 52.7007153,37.9972413 52.5921763,37.6854635 C52.4829185,37.3744159 52.4282896,37.039273 52.4282896,36.6800349 C52.4282896,36.3113048 52.4829185,35.9688603 52.5921763,35.6534317" id="Fill-14" fill="#231F20" mask="url(#mask-2)"></path>
                        <polygon id="Fill-15" fill="#231F20" mask="url(#mask-2)" points="59.137653 34.1914349 59.137653 38.2146095 61.5061033 38.2146095 61.5061033 39.1273079 58.0695142 39.1273079 58.0695142 34.1914349"></polygon>
                        <path d="M65.8132326,38.7499619 C65.4459252,39.0748825 64.9377326,39.2377079 64.288655,39.2377079 C63.6309518,39.2377079 63.1220405,39.0763429 62.7612023,38.7536127 C62.4010828,38.4308825 62.2206637,37.9336444 62.2206637,37.2604381 L62.2206637,34.191581 L63.2888024,34.191581 L63.2888024,37.2604381 C63.2888024,37.3947873 63.2995844,37.5254857 63.3225861,37.6547238 C63.3448689,37.7839619 63.3930286,37.8978667 63.4649087,37.9971683 C63.5382265,38.0957397 63.6395775,38.1767873 63.7682429,38.2388508 C63.8976271,38.3009143 64.0708583,38.3323111 64.288655,38.3323111 C64.6696197,38.3323111 64.932701,38.2461524 65.0786177,38.0723746 C65.2238156,37.9000571 65.2956957,37.6291683 65.2956957,37.2604381 L65.2956957,34.191581 L66.3645532,34.191581 L66.3645532,37.2604381 C66.3645532,37.9285333 66.1812589,38.4257714 65.8132326,38.7499619" id="Fill-16" fill="#231F20" mask="url(#mask-2)"></path>
                        <polygon id="Fill-17" fill="#231F20" mask="url(#mask-2)" points="67.038142 35.1041333 67.038142 34.1914349 71.0188636 34.1914349 71.0188636 35.1041333 69.5625722 35.1041333 69.5625722 39.1273079 68.4937146 39.1273079 68.4937146 35.1041333"></polygon>
                        <polygon id="Fill-18" fill="#231F20" mask="url(#mask-2)" points="71.7133695 39.1270159 72.7815082 39.1270159 72.7815082 34.1911429 71.7133695 34.1911429"></polygon>
                        <path d="M74.7848794,37.2846063 C74.8323202,37.481019 74.909232,37.6569873 75.0127394,37.8139714 C75.1176844,37.9702254 75.2535378,38.0958127 75.4217373,38.1900032 C75.589218,38.2841937 75.7933576,38.3323841 76.0334372,38.3323841 C76.2742357,38.3323841 76.4783752,38.2841937 76.6465748,38.1900032 C76.8140555,38.0958127 76.9506277,37.9702254 77.0541351,37.8139714 C77.1590801,37.6569873 77.2345542,37.481019 77.2827139,37.2846063 C77.3301548,37.0889238 77.3538752,36.8874 77.3538752,36.6800349 C77.3538752,36.4631778 77.3301548,36.2536222 77.2827139,36.0513683 C77.2345542,35.8483841 77.1590801,35.6673048 77.0541351,35.5081302 C76.9506277,35.3496857 76.8140555,35.2226381 76.6465748,35.1277175 C76.4783752,35.033527 76.2742357,34.9867968 76.0334372,34.9867968 C75.7933576,34.9867968 75.589218,35.033527 75.4217373,35.1277175 C75.2535378,35.2226381 75.1176844,35.3496857 75.0127394,35.5081302 C74.909232,35.6673048 74.8323202,35.8483841 74.7848794,36.0513683 C74.7381573,36.2536222 74.713718,36.4631778 74.713718,36.6800349 C74.713718,36.8874 74.7381573,37.0889238 74.7848794,37.2846063 M73.8087472,35.6534317 C73.9172862,35.3380032 74.0739849,35.0627333 74.2781244,34.8276222 C74.482264,34.591781 74.7331257,34.4085111 75.0299906,34.2748921 C75.3275743,34.1405429 75.661817,34.0740984 76.0334372,34.0740984 C76.4108079,34.0740984 76.7464881,34.1405429 77.0411967,34.2748921 C77.3359052,34.4085111 77.5853293,34.591781 77.7894688,34.8276222 C77.9936084,35.0627333 78.1503071,35.3380032 78.2588461,35.6534317 C78.3673851,35.9688603 78.4227328,36.3113048 78.4227328,36.6800349 C78.4227328,37.039273 78.3673851,37.3744159 78.2588461,37.6854635 C78.1503071,37.9972413 77.9936084,38.2674 77.7894688,38.4974 C77.5853293,38.7288603 77.3359052,38.9092095 77.0411967,39.0399079 C76.7464881,39.1720667 76.4108079,39.237781 76.0334372,39.237781 C75.661817,39.237781 75.3275743,39.1720667 75.0299906,39.0399079 C74.7331257,38.9092095 74.482264,38.7288603 74.2781244,38.4974 C74.0739849,38.2674 73.9172862,37.9972413 73.8087472,37.6854635 C73.6994894,37.3744159 73.6455793,37.039273 73.6455793,36.6800349 C73.6455793,36.3113048 73.6994894,35.9688603 73.8087472,35.6534317" id="Fill-19" fill="#231F20" mask="url(#mask-2)"></path>
                        <polygon id="Fill-20" fill="#231F20" mask="url(#mask-2)" points="80.3478984 34.1914349 82.3756369 37.5027048 82.3900129 37.5027048 82.3900129 34.1914349 83.3898655 34.1914349 83.3898655 39.1273079 82.3217268 39.1273079 80.3011763 35.8226095 80.2868002 35.8226095 80.2868002 39.1273079 79.2862288 39.1273079 79.2862288 34.1914349"></polygon>
                        <path d="M85.2812474,37.9099873 C85.3401891,38.0253524 85.4185385,38.1188127 85.5162954,38.1903683 C85.6140524,38.2611937 85.7283418,38.3144952 85.8598825,38.3495429 C85.9914231,38.3838603 86.1272766,38.4013841 86.2681616,38.4013841 C86.3637622,38.4013841 86.4651132,38.3933524 86.574371,38.3772889 C86.68291,38.3604952 86.7856986,38.3298286 86.8805803,38.2838286 C86.9754621,38.2378286 87.0552491,38.1743048 87.1185036,38.0932571 C87.1824769,38.0129397 87.2133853,37.9099873 87.2133853,37.7858603 C87.2133853,37.6522413 87.1716949,37.5441778 87.0883139,37.4609397 C87.0034954,37.3777016 86.8942376,37.3090667 86.7583841,37.2543048 C86.6218119,37.1980825 86.4672696,37.1498921 86.2954761,37.108273 C86.1229638,37.0673841 85.948295,37.020654 85.7714699,36.970273 C85.590332,36.924273 85.4135069,36.8673206 85.2402757,36.8008762 C85.0677634,36.7344317 84.9139399,36.6475429 84.7780865,36.5416698 C84.6415142,36.4357968 84.5315376,36.3036381 84.4481567,36.1444635 C84.3640569,35.9852889 84.3223665,35.7932571 84.3223665,35.5669079 C84.3223665,35.3135429 84.374839,35.0937651 84.4819404,34.9068444 C84.5883229,34.720654 84.7277704,34.5651302 84.9002827,34.440273 C85.072795,34.316146 85.2675902,34.2234159 85.485387,34.1635429 C85.7031838,34.1036698 85.9216994,34.0737333 86.1387774,34.0737333 C86.393233,34.0737333 86.6369067,34.1029397 86.8705171,34.1606222 C87.1041275,34.2175746 87.3111423,34.3110349 87.4929991,34.440273 C87.674137,34.5695111 87.8178972,34.7337968 87.9249986,34.9345905 C88.0313812,35.134654 88.0845725,35.3777968 88.0845725,35.664019 L87.0509362,35.664019 C87.0415918,35.516527 87.0106834,35.3945905 86.9589297,35.2974794 C86.9064572,35.2003683 86.8374523,35.1251619 86.7511961,35.0689397 C86.6649399,35.0141778 86.5664642,34.9747492 86.45505,34.9513841 C86.3443546,34.9287492 86.2228771,34.9170667 86.0913365,34.9170667 C86.0050803,34.9170667 85.9188242,34.9265587 85.832568,34.9448127 C85.7463119,34.9630667 85.6679625,34.9959238 85.59752,35.0411937 C85.5277963,35.0879238 85.4695734,35.1456063 85.4242889,35.2149714 C85.3790044,35.2836063 85.3560028,35.3712254 85.3560028,35.4770984 C85.3560028,35.5742095 85.3746916,35.6523365 85.4106317,35.7122095 C85.4465717,35.7720825 85.5184518,35.8268444 85.6255532,35.8786857 C85.731217,35.9290667 85.8792901,35.9794476 86.0676161,36.0305587 C86.2552232,36.0809397 86.501772,36.1451937 86.805825,36.2233206 C86.896394,36.2423048 87.0221842,36.2758921 87.1831957,36.3240825 C87.3442072,36.3730032 87.5044999,36.4496698 87.6626362,36.5555429 C87.8214913,36.6614159 87.9595011,36.8030667 88.0752281,36.9804952 C88.1902363,37.1579238 88.2484592,37.3850032 88.2484592,37.6610032 C88.2484592,37.8873524 88.2046124,38.0969079 88.119075,38.2904 C88.0328188,38.4838921 87.9041534,38.6518286 87.7345163,38.7912889 C87.5648792,38.9322095 87.3535516,39.0417333 87.1012523,39.1198603 C86.8503907,39.1987175 86.5578385,39.2374159 86.2271899,39.2374159 C85.9590771,39.2374159 85.6995898,39.2038286 85.4480093,39.1373841 C85.1964289,39.0702095 84.9736005,38.9650667 84.7816805,38.8226857 C84.5883229,38.6803048 84.4352183,38.4977651 84.3223665,38.276527 C84.2087959,38.0552889 84.154167,37.7931619 84.1584798,37.4886857 L85.1928349,37.4886857 C85.1928349,37.6544317 85.2223057,37.7953524 85.2812474,37.9099873" id="Fill-21" fill="#231F20" mask="url(#mask-2)"></path>
                        <polygon id="Fill-22" fill="#231F20" mask="url(#mask-2)" points="0.0208452381 45.889746 33.4551695 45.889746 33.4551695 38.7049841 0.0208452381 38.7049841"></polygon>
                        <path d="M16.7170903,27.0331778 C11.3562701,27.0331778 7.01039733,22.6186381 7.01039733,17.1731143 C7.01039733,11.7275905 11.3562701,7.31305079 16.7170903,7.31305079 C22.0779105,7.31305079 26.4237832,11.7275905 26.4237832,17.1731143 C26.4237832,22.6186381 22.0779105,27.0331778 16.7170903,27.0331778 M16.7170903,0.191812698 C7.4840874,0.191812698 -7.18801314e-05,7.7942254 -7.18801314e-05,17.1731143 C-7.18801314e-05,26.5520032 7.4840874,34.1544159 16.7170903,34.1544159 C25.9500931,34.1544159 33.4342524,26.5520032 33.4342524,17.1731143 C33.4342524,7.7942254 25.9500931,0.191812698 16.7170903,0.191812698" id="Fill-23" fill="#231F20" mask="url(#mask-2)"></path>
                    </g>
                </g>
            </g>
        </g>
    </g>
</svg>